<?xml version="1.0" encoding="utf-8"?>
<!-- Generator: Adobe Illustrator 23.0.0, SVG Export Plug-In . SVG Version: 6.00 Build 0)  -->
<svg version="1.1" id="houzz-logo" xmlns="http://www.w3.org/2000/svg" xmlns:xlink="http://www.w3.org/1999/xlink" x="0px" y="0px"
	 viewBox="0 0 557.5 127.6" style="enable-background:new 0 0 557.5 127.6;" xml:space="preserve">
<style type="text/css">
	.st0{fill:#20D324;stroke:#000000;stroke-miterlimit:10;}
</style>
<g>
	<path d="M312.9,64.2c-14.7-14.7-38.6-14.7-53.3,0c-3.4,3.4-6.1,7.4-8,11.8c-2,4.6-2.9,9.5-2.9,14.5c-0.1,9.9,3.9,19.3,10.9,26.3
		c3.4,3.4,7.5,6,11.9,7.9c9.4,3.9,20,3.9,29.5,0c4.4-1.9,8.5-4.5,11.9-7.9c7-6.9,10.9-16.4,10.9-26.3c0-5-1-9.9-2.9-14.5
		C319,71.6,316.3,67.6,312.9,64.2z M305.8,99.5c-0.9,2.6-2.3,5-4.1,7c-1.8,2-4.1,3.5-6.6,4.6c-5.6,2.2-11.9,2.2-17.5,0
		c-2.5-1-4.7-2.6-6.6-4.6c-1.8-2-3.3-4.4-4.2-7c-2-5.9-2-12.3,0-18.1c0.9-2.6,2.3-5,4.2-7c1.8-2,4.1-3.5,6.6-4.6
		c5.6-2.2,11.9-2.2,17.5,0c2.5,1,4.7,2.6,6.6,4.6c1.8,2,3.3,4.4,4.1,7C307.8,87.3,307.8,93.6,305.8,99.5z"/>
	<polygon points="481.4,68.5 481.4,55.1 425.6,55.1 425.6,69.1 461.3,69.1 424.3,112.3 424.3,125.8 483.4,125.8 483.4,111.9 
		444.2,111.9 	"/>
	<polygon points="518.2,111.9 555.5,68.5 555.5,55.1 499.6,55.1 499.6,69.1 535.3,69.1 498.3,112.3 498.3,125.8 557.5,125.8 
		557.5,111.9 	"/>
	<path d="M215.8,55.8c-10.4-4.3-23.3-2.5-31.5,4.1V30.1h-15.7v95.7h15.7V88.2c0-7.2,2.1-19.2,15.8-19.2c12.6,0,17.1,10.3,17.1,19.2
		v37.6h15.6V83.1C232.9,70.2,226.7,60.3,215.8,55.8z"/>
	<path d="M390.8,93.7c0,2.2-0.3,4.4-0.9,6.6c-0.6,2.2-1.6,4.2-2.9,6l0,0c-1.4,1.8-3.2,3.4-5.3,4.4c-5.2,2.3-11.1,2.3-16.3,0
		c-2.1-1.1-3.9-2.6-5.3-4.4c-1.3-1.8-2.3-3.8-2.9-6c-0.6-2.1-0.9-4.3-0.9-6.6V55h-15.5v40.3c0,15,6.6,25,20,30
		c8.4,3,17.5,3,25.9-0.1c16.4-6.2,19.8-19.7,19.8-30V55.2h-15.6V93.7z"/>
</g>
<g>
	<polygon class="st0" points="70.3,125.8 112.5,125.8 112.5,54.4 28,30.1 28,0 0,0 0,125.8 42.2,125.8 42.2,86.2 70.3,86.2 	"/>
</g>
</svg>
