<svg width="80" height="40" viewBox="0 0 80 40" fill="none" xmlns="http://www.w3.org/2000/svg">
<path d="M78.4833 26.7122C78.7404 26.1781 78.8743 25.5975 78.8759 25.0097C78.8776 24.4219 78.7469 23.8406 78.4928 23.3052C78.2387 22.7698 77.867 22.2927 77.403 21.9065C76.94 21.521 76.3958 21.2348 75.8071 21.0672C75.8061 21.0669 75.8062 21.0655 75.8072 21.0653C76.4153 20.9223 76.9824 20.6516 77.4672 20.2729C77.9529 19.8934 78.3437 19.415 78.6109 18.8727C78.86 18.3436 78.9924 17.7713 78.9997 17.1912C79.007 16.6112 78.8891 16.0359 78.6534 15.5013C77.8202 13.6872 76.5869 12.0662 75.0377 10.7488C74.2675 10.1141 73.2899 9.75503 72.2728 9.73336H72.2302C71.517 9.74618 70.8188 9.93182 70.2012 10.2729C69.5847 10.6133 69.0687 11.0975 68.7014 11.6802C68.7009 11.681 68.6996 11.6806 68.6996 11.6796V5.02152C68.6996 4.49 68.5893 3.96374 68.375 3.47319C68.1607 2.98263 67.8467 2.53751 67.4511 2.16356C67.0556 1.78961 66.5863 1.49426 66.0705 1.29457C65.5546 1.09489 65.0024 0.994836 64.4458 1.00021C63.0675 1.07923 61.7001 1.28324 60.3622 1.60949C59.1328 1.93966 57.9369 2.37468 56.789 2.90931C56.2656 3.14981 55.7993 3.49012 55.4189 3.90928C55.0384 4.32843 54.7519 4.81755 54.577 5.34647C54.4041 5.88424 54.3489 6.45022 54.4148 7.00924C54.4806 7.56826 54.6662 8.10837 54.9599 8.59602L58.4037 14.3204C58.4042 14.3213 58.4033 14.3223 58.4024 14.3219C57.7977 14.0266 57.1279 13.8739 56.4487 13.8765C55.5611 13.8704 54.6946 14.1351 53.9754 14.6319C53.2562 15.1287 52.7219 15.8317 52.4502 16.6386L52.323 17.0028C52.3228 17.0035 52.322 17.0037 52.3214 17.0032C51.716 16.4608 51.028 16.0092 50.2807 15.6638C49.1764 15.1651 47.9717 14.9017 46.7501 14.892C45.8186 14.8885 44.895 15.0538 44.0281 15.3793C44.0278 15.3794 44.0275 15.3794 44.0273 15.3792C43.2473 14.966 42.3548 14.7875 41.4668 14.8673C40.5793 14.9469 39.7377 15.2808 39.0524 15.825C39.0517 15.8255 39.0507 15.825 39.0507 15.8242V15.0545C39.112 14.4512 39.0405 13.8423 38.8407 13.2669C38.6409 12.6916 38.3173 12.1625 37.8907 11.7137C37.4641 11.2649 36.9438 10.9062 36.3634 10.6608C35.783 10.4153 35.1553 10.2885 34.5205 10.2885C33.8857 10.2885 33.2579 10.4153 32.6775 10.6608C32.0971 10.9062 31.5769 11.2649 31.1502 11.7137C30.7236 12.1625 30.4 12.6916 30.2002 13.2669C30.0004 13.8423 29.9289 14.4512 29.9902 15.0545V17.4487C29.9902 17.4495 29.9891 17.45 29.9885 17.4494C28.5119 16.0148 26.5236 15.1638 24.4196 15.066C22.315 14.9682 20.2492 15.631 18.6334 16.9223C18.633 16.9227 18.6323 16.9226 18.632 16.9221C18.0586 16.1256 17.2189 15.5387 16.2505 15.2576C15.8093 15.1278 15.3509 15.0594 14.8893 15.0545C13.9043 15.0585 12.9468 15.3646 12.1579 15.9277C11.3691 16.4909 10.7906 17.2812 10.5079 18.1822L10.3384 18.789C10.3382 18.7899 10.337 18.79 10.3366 18.7892L9.69967 17.5729C9.32657 16.8272 8.74237 16.1962 8.01317 15.7511C7.28397 15.306 6.43887 15.0647 5.57351 15.0545C4.87946 15.0864 4.19937 15.2522 3.57423 15.5419C2.48583 16.0648 1.64859 16.9661 1.23465 18.0603C0.849455 19.1721 0.941226 20.3844 1.48988 21.4317L5.82824 30.0014C5.82851 30.0019 5.82826 30.0026 5.82772 30.0028C5.19602 30.2537 4.63168 30.6373 4.17666 31.1252C3.7214 31.6134 3.3873 32.1933 3.19925 32.8218C3.01119 33.4503 2.97402 34.1112 3.0905 34.7553C3.20697 35.3995 3.4741 36.0102 3.872 36.5421C4.51006 37.3951 5.74366 38.4106 8.12578 38.4512H8.46608C9.65714 38.4512 13.6132 38.1263 15.0169 34.1049C15.3995 33.0088 15.8246 31.6693 16.2498 30.2891C16.25 30.2882 16.2512 30.2881 16.2516 30.2889L16.5057 30.7742C17.952 33.4144 20.5468 34.8361 23.8648 34.8361C27.1819 34.8361 29.1811 33.8211 30.5423 32.4811C30.5427 32.4806 30.5435 32.4807 30.5438 32.4813C30.9286 33.1761 31.5035 33.7582 32.2073 34.1657C32.9114 34.5734 33.7182 34.7911 34.5417 34.7955C35.5822 34.8042 36.5919 34.4591 37.3902 33.8219C37.3908 33.8214 37.3918 33.8218 37.3918 33.8227V34.5924C37.3834 35.1631 37.4928 35.7299 37.7138 36.2603C37.9348 36.7906 38.2631 37.2743 38.6798 37.6835C39.5214 38.51 40.6724 38.9834 41.8795 38.9996C43.0867 39.0157 44.2511 38.5733 45.1166 37.7697C45.5452 37.3717 45.8875 36.8971 46.124 36.3728C46.3603 35.8489 46.4863 35.2856 46.4948 34.7152C46.4949 34.7147 46.4953 34.7142 46.4958 34.7142H46.665C47.4732 34.7142 50.3658 34.5518 52.3651 32.4802C52.9606 31.8709 54.6618 30.2058 54.8748 25.9417C54.8748 25.941 54.8754 25.9406 54.876 25.9407C55.2526 26.0212 55.6374 26.062 56.0233 26.0623C56.4114 26.0655 56.7976 26.0111 57.1682 25.9009C57.1691 25.9006 57.1699 25.9019 57.1692 25.9026C56.7381 26.3448 56.4124 26.8709 56.2145 27.4448C56.0162 28.0198 55.951 28.6292 56.0233 29.2306C56.1026 29.8005 56.3064 30.3481 56.6215 30.8379C56.9366 31.3277 57.356 31.7489 57.8525 32.074C59.5268 33.2004 61.4464 33.9503 63.4674 34.2674L64.1906 34.3487C65.2896 34.3386 66.3419 33.9228 67.127 33.1883C67.912 32.4538 68.3689 31.4576 68.4018 30.4086V30.3714C68.4018 30.3704 68.4031 30.37 68.4037 30.3708C68.7836 30.9576 69.3153 31.4412 69.9477 31.775C70.581 32.1094 71.2939 32.2823 72.0175 32.2771C72.9981 32.2763 73.947 31.9455 74.6974 31.3428C76.3024 30.0856 77.5954 28.5041 78.4833 26.7122Z" fill="white" stroke="#CCCCCC" stroke-width="0.22" stroke-miterlimit="10"/>
<path fill-rule="evenodd" clip-rule="evenodd" d="M36.1581 30.4088C36.1581 30.6096 36.1161 30.8084 36.0343 30.9935C35.9526 31.1785 35.8328 31.346 35.6822 31.4861C35.5315 31.6262 35.3529 31.7361 35.157 31.8092C34.9611 31.8823 34.7519 31.9171 34.5416 31.9117C34.1202 31.9119 33.7154 31.7548 33.4134 31.4741C33.1115 31.1933 32.9363 30.8111 32.9252 30.4088V15.2172C32.8873 14.9963 32.9002 14.7702 32.9629 14.5546C33.0256 14.3389 33.1367 14.1389 33.2884 13.9683C33.4402 13.7977 33.629 13.6607 33.8417 13.5667C34.0544 13.4727 34.286 13.4241 34.5204 13.4241C34.7548 13.4241 34.9863 13.4727 35.1991 13.5667C35.4118 13.6607 35.6006 13.7977 35.7523 13.9683C35.904 14.1389 36.0151 14.3389 36.0779 14.5546C36.1406 14.7702 36.1534 14.9963 36.1155 15.2172L36.1581 30.4088Z" fill="black"/>
<path d="M22.291 26.1842H28.1612C28.5938 26.1529 28.9964 25.9611 29.2827 25.6498C29.5689 25.3385 29.7161 24.9325 29.6926 24.5188V24.5188V24.4376C29.3948 18.7915 25.6515 17.9791 23.95 18.0197C22.2485 18.0603 18.2074 18.9946 18.2074 25.2093C18.2499 27.5246 18.7604 31.9927 23.9075 31.9927C28.3314 31.9927 29.3098 29.515 29.3098 28.9057C29.3098 28.2964 28.5015 27.1997 27.6082 27.484C26.715 27.7683 25.8642 29.1494 24.2478 29.1494C21.9082 29.1494 21.6104 27.1184 21.6104 26.6716C21.6104 26.2248 21.8231 26.1842 22.291 26.1842ZM21.6104 23.4627C21.6955 21.3505 23.3545 20.9849 24.1201 20.9849C24.8858 20.9849 26.5448 21.3099 26.6724 23.4627C26.6734 23.5102 26.6569 23.5566 26.6259 23.5937C26.5948 23.6308 26.551 23.6563 26.5023 23.6658H21.738C21.7107 23.6739 21.6813 23.6731 21.6546 23.6633C21.6279 23.6536 21.6053 23.6356 21.5906 23.6122C21.5759 23.5887 21.5698 23.5613 21.5734 23.5342C21.577 23.507 21.59 23.4819 21.6104 23.4627Z" fill="black"/>
<path d="M9.18923 30.0837L4.16977 20.2944C4.0762 20.1106 4.02178 19.9109 4.00967 19.7069C3.99756 19.5029 4.028 19.2986 4.09923 19.1059C4.17046 18.9131 4.28106 18.7359 4.42461 18.5843C4.56815 18.4327 4.74179 18.3098 4.93545 18.2229C5.12417 18.1264 5.3315 18.0677 5.54478 18.0504C5.75805 18.0331 5.97279 18.0575 6.17585 18.1221C6.37891 18.1868 6.56603 18.2903 6.72577 18.4263C6.88551 18.5624 7.01451 18.7281 7.10488 18.9134L11.0184 26.4686L13.3579 19.1571C13.4211 18.9564 13.5253 18.7696 13.6645 18.6077C13.8038 18.4457 13.9753 18.3117 14.1692 18.2135C14.3631 18.1153 14.5754 18.0547 14.7939 18.0354C15.0125 18.0161 15.2328 18.0384 15.4423 18.101C15.8493 18.2314 16.1875 18.5075 16.3858 18.8711C16.5841 19.2346 16.6271 19.6575 16.5057 20.0507C16.5057 20.0507 13.8684 28.4183 12.252 33.2114C11.699 34.7955 10.3378 35.6079 8.2534 35.5673C6.16905 35.5267 5.82875 34.3487 6.08397 33.577C6.3392 32.8052 7.06234 32.4802 7.78548 32.4802C9.65715 32.4802 9.86984 31.4241 9.18923 30.0837Z" fill="black"/>
<path d="M51.9397 24.3159C51.9397 22.2849 51.6844 19.5634 49.0045 18.3448C48.2544 18.0129 47.434 17.8512 46.6075 17.8723C45.781 17.8934 44.9708 18.0969 44.2403 18.4667L43.4321 18.9948C43.3623 18.658 43.1706 18.3554 42.8906 18.1401C42.6106 17.9247 42.2602 17.8103 41.9007 17.8168C41.472 17.8168 41.0609 17.9794 40.7577 18.2689C40.4546 18.5584 40.2843 18.951 40.2843 19.3603V34.552C40.3463 34.9132 40.5408 35.2417 40.833 35.4788C41.1252 35.7158 41.4961 35.8459 41.8795 35.8459C42.2629 35.8459 42.6338 35.7158 42.926 35.4788C43.2182 35.2417 43.4126 34.9132 43.4746 34.552V30.5713C43.8225 30.9518 44.2461 31.2626 44.7207 31.4858C45.1953 31.7089 45.7116 31.8398 46.2396 31.8711C52.365 31.9929 51.9822 25.6969 51.9397 24.3159ZM48.7493 25.4532C48.7493 26.6718 48.7919 28.8246 46.4523 28.8652C44.1127 28.9059 44.1552 26.6718 44.1552 25.4938V24.3565C44.1552 23.1785 44.1552 20.9851 46.4523 20.9851C48.7493 20.9851 48.7493 23.1785 48.7493 24.3565V25.4532Z" fill="black"/>
<path fill-rule="evenodd" clip-rule="evenodd" d="M56.9592 16.9637L62.5316 19.5633C62.7658 19.6738 62.9589 19.8502 63.0848 20.0688C63.2106 20.2874 63.2632 20.5377 63.2354 20.7857C63.2075 21.0337 63.1006 21.2676 62.9291 21.4558C62.7577 21.644 62.5298 21.7774 62.2764 21.838L56.2786 23.3003C56.1016 23.3418 55.9173 23.3467 55.7382 23.3146C55.5591 23.2824 55.3892 23.214 55.2401 23.114C55.091 23.0139 54.966 22.8845 54.8737 22.7345C54.7813 22.5844 54.7237 22.4173 54.7047 22.2442C54.4945 20.7001 54.6545 19.1306 55.1726 17.6542C55.2318 17.4891 55.3275 17.3381 55.4532 17.2114C55.5789 17.0847 55.7315 16.9853 55.9009 16.9198C56.0703 16.8544 56.2525 16.8244 56.435 16.832C56.6176 16.8395 56.7963 16.8844 56.9592 16.9637Z" fill="#F43939"/>
<path fill-rule="evenodd" clip-rule="evenodd" d="M59.2138 27.9308L63.3399 23.5033C63.512 23.306 63.7449 23.1656 64.0054 23.1022C64.2659 23.0388 64.5408 23.0556 64.7907 23.1501C65.0407 23.2447 65.2529 23.4122 65.3973 23.6288C65.5416 23.8454 65.6106 24.1 65.5944 24.3563L65.3818 30.2867C65.3782 30.4619 65.3351 30.6344 65.2555 30.7922C65.1758 30.9501 65.0614 31.0897 64.9201 31.2015C64.7787 31.3133 64.6138 31.3947 64.4366 31.4401C64.2593 31.4855 64.0739 31.4939 63.8929 31.4647C62.2936 31.2071 60.7706 30.6253 59.4265 29.7587C59.2763 29.6595 59.1502 29.5307 59.0566 29.3811C58.963 29.2314 58.9042 29.0643 58.884 28.891C58.8639 28.7177 58.8829 28.5424 58.9398 28.3767C58.9966 28.2111 59.0901 28.059 59.2138 27.9308V27.9308Z" fill="#F43939"/>
<path fill-rule="evenodd" clip-rule="evenodd" d="M69.04 22.0412L74.9527 23.8691C75.1293 23.9213 75.2919 24.0095 75.4293 24.1276C75.5667 24.2457 75.6755 24.3909 75.7484 24.5532C75.8212 24.7154 75.8562 24.8908 75.851 25.0673C75.8459 25.2437 75.8006 25.417 75.7184 25.5751C75.0159 26.9631 74.016 28.1947 72.7833 29.1902C72.6408 29.2982 72.4763 29.3769 72.3004 29.4212C72.1245 29.4656 71.9408 29.4747 71.7611 29.448C71.5813 29.4213 71.4092 29.3593 71.2557 29.266C71.1022 29.1727 70.9706 29.0501 70.8691 28.9059L67.5937 23.8691C67.451 23.6591 67.3795 23.4123 67.3889 23.1622C67.3982 22.9121 67.488 22.6708 67.646 22.4712C67.804 22.2715 68.0226 22.1231 68.272 22.0462C68.5214 21.9692 68.7895 21.9675 69.04 22.0412V22.0412Z" fill="#F43939"/>
<path fill-rule="evenodd" clip-rule="evenodd" d="M75.0377 18.4258L69.0824 20.0912C68.8287 20.1621 68.5581 20.156 68.3082 20.0737C68.0582 19.9915 67.8412 19.8371 67.6871 19.632C67.533 19.4268 67.4494 19.1811 67.4479 18.9286C67.4464 18.6762 67.527 18.4295 67.6787 18.2227L71.1242 13.3078C71.2247 13.1614 71.3569 13.0374 71.512 12.9443C71.6671 12.8511 71.8413 12.7909 72.0229 12.7678C72.2046 12.7446 72.3893 12.7591 72.5645 12.8103C72.7397 12.8614 72.9014 12.9479 73.0384 13.064C74.2453 14.0953 75.2156 15.3538 75.8885 16.7604C75.962 16.9219 75.9979 17.0967 75.9939 17.2728C75.9898 17.4489 75.9459 17.622 75.865 17.7803C75.7841 17.9386 75.6683 18.0783 75.5255 18.1897C75.3827 18.3011 75.2163 18.3817 75.0377 18.4258Z" fill="#F43939"/>
<path fill-rule="evenodd" clip-rule="evenodd" d="M61.0854 4.61552C60.0309 4.88912 59.0055 5.25629 58.0226 5.71224C57.8644 5.78488 57.7237 5.8879 57.6091 6.01487C57.4945 6.14183 57.4085 6.29 57.3566 6.45012C57.3047 6.61024 57.288 6.77886 57.3074 6.94544C57.3269 7.11202 57.3821 7.27298 57.4696 7.41825L63.2973 17.0856C63.9779 18.1417 65.722 17.6949 65.6794 16.4764V5.30605C65.6739 5.14066 65.6344 4.97793 65.563 4.82716C65.4916 4.67639 65.3897 4.54053 65.2633 4.42736C65.1369 4.31419 64.9884 4.22592 64.8262 4.1676C64.664 4.10927 64.4914 4.08205 64.3182 4.08747C63.2276 4.18094 62.1465 4.35752 61.0854 4.61552V4.61552Z" fill="#F43939"/>
</svg>
